<svg width="42" height="42" viewBox="0 0 42 42" fill="none" xmlns="http://www.w3.org/2000/svg">
<path fill-rule="evenodd" clip-rule="evenodd" d="M3.5 21C3.5 11.3348 11.3348 3.5 21 3.5C30.6652 3.5 38.5 11.3348 38.5 21C38.5 30.6652 30.6652 38.5 21 38.5C11.3348 38.5 3.5 30.6652 3.5 21ZM21 7C17.287 7 13.726 8.475 11.1005 11.1005C8.475 13.726 7 17.287 7 21C7 24.713 8.475 28.274 11.1005 30.8995C13.726 33.525 17.287 35 21 35C24.713 35 28.274 33.525 30.8995 30.8995C33.525 28.274 35 24.713 35 21C35 17.287 33.525 13.726 30.8995 11.1005C28.274 8.475 24.713 7 21 7Z" fill="black"/>
<path fill-rule="evenodd" clip-rule="evenodd" d="M22.75 12.25C22.75 11.7859 22.5656 11.3408 22.2374 11.0126C21.9092 10.6844 21.4641 10.5 21 10.5C20.5359 10.5 20.0908 10.6844 19.7626 11.0126C19.4344 11.3408 19.25 11.7859 19.25 12.25V19.25H12.25C11.7859 19.25 11.3408 19.4344 11.0126 19.7626C10.6844 20.0908 10.5 20.5359 10.5 21C10.5 21.4641 10.6844 21.9092 11.0126 22.2374C11.3408 22.5656 11.7859 22.75 12.25 22.75H19.25V29.75C19.25 30.2141 19.4344 30.6593 19.7626 30.9874C20.0908 31.3156 20.5359 31.5 21 31.5C21.4641 31.5 21.9092 31.3156 22.2374 30.9874C22.5656 30.6593 22.75 30.2141 22.75 29.75V22.75H29.75C30.2141 22.75 30.6593 22.5656 30.9874 22.2374C31.3156 21.9092 31.5 21.4641 31.5 21C31.5 20.5359 31.3156 20.0908 30.9874 19.7626C30.6593 19.4344 30.2141 19.25 29.75 19.25H22.75V12.25Z" fill="black"/>
</svg>
